<mxfile host="app.diagrams.net" modified="2024-06-03T15:09:20.047Z" agent="Mozilla/5.0 (Windows NT 10.0; Win64; x64) AppleWebKit/537.36 (KHTML, like Gecko) Chrome/125.0.0.0 Safari/537.36" etag="W9Q16MLdY0tLtZ3ZBZdJ" version="24.4.13" type="device">
  <diagram name="Page-1" id="xFRPB0dhuqbpq0Z4L34E">
    <mxGraphModel dx="1994" dy="624" grid="1" gridSize="10" guides="1" tooltips="1" connect="1" arrows="1" fold="1" page="1" pageScale="1" pageWidth="827" pageHeight="1169" math="0" shadow="0">
      <root>
        <mxCell id="0" />
        <mxCell id="1" parent="0" />
        <mxCell id="SAYtiUI8MAWIj96Efn8c-6" value="LTL-formula" style="swimlane;whiteSpace=wrap;html=1;" vertex="1" parent="1">
          <mxGeometry x="460" y="39.5" width="106" height="80" as="geometry">
            <mxRectangle x="19" y="270" width="150" height="30" as="alternateBounds" />
          </mxGeometry>
        </mxCell>
        <mxCell id="SAYtiUI8MAWIj96Efn8c-9" value="SAS+ file" style="swimlane;whiteSpace=wrap;html=1;" vertex="1" collapsed="1" parent="1">
          <mxGeometry x="240" y="160" width="96" height="30" as="geometry">
            <mxRectangle x="220" y="280" width="150" height="80" as="alternateBounds" />
          </mxGeometry>
        </mxCell>
        <mxCell id="SAYtiUI8MAWIj96Efn8c-12" value="Unfold formula" style="swimlane;whiteSpace=wrap;html=1;" vertex="1" parent="1">
          <mxGeometry x="647" y="42" width="150" height="35" as="geometry">
            <mxRectangle x="19" y="270" width="150" height="30" as="alternateBounds" />
          </mxGeometry>
        </mxCell>
        <mxCell id="SAYtiUI8MAWIj96Efn8c-14" value="Parse goal" style="swimlane;whiteSpace=wrap;html=1;" vertex="1" parent="1">
          <mxGeometry x="223" y="39.5" width="174" height="80" as="geometry">
            <mxRectangle x="230" y="50" width="150" height="30" as="alternateBounds" />
          </mxGeometry>
        </mxCell>
        <mxCell id="SAYtiUI8MAWIj96Efn8c-15" value="&lt;ul&gt;&lt;li&gt;Haskell parsing library?&lt;/li&gt;&lt;/ul&gt;" style="text;html=1;align=left;verticalAlign=middle;resizable=0;points=[];autosize=1;strokeColor=none;fillColor=none;" vertex="1" parent="SAYtiUI8MAWIj96Efn8c-14">
          <mxGeometry y="24" width="190" height="50" as="geometry" />
        </mxCell>
        <mxCell id="SAYtiUI8MAWIj96Efn8c-55" style="edgeStyle=orthogonalEdgeStyle;rounded=0;orthogonalLoop=1;jettySize=auto;html=1;entryX=0;entryY=0.5;entryDx=0;entryDy=0;" edge="1" parent="1" source="SAYtiUI8MAWIj96Efn8c-16" target="SAYtiUI8MAWIj96Efn8c-48">
          <mxGeometry relative="1" as="geometry">
            <Array as="points">
              <mxPoint x="480" y="465" />
            </Array>
          </mxGeometry>
        </mxCell>
        <mxCell id="SAYtiUI8MAWIj96Efn8c-16" value="Parser" style="swimlane;whiteSpace=wrap;html=1;" vertex="1" parent="1">
          <mxGeometry x="397" y="160" width="175" height="60" as="geometry">
            <mxRectangle x="19" y="270" width="150" height="30" as="alternateBounds" />
          </mxGeometry>
        </mxCell>
        <mxCell id="SAYtiUI8MAWIj96Efn8c-17" value="&lt;ul&gt;&lt;li&gt;Reuse from homework&lt;/li&gt;&lt;/ul&gt;" style="text;html=1;align=left;verticalAlign=middle;resizable=0;points=[];autosize=1;strokeColor=none;fillColor=none;" vertex="1" parent="SAYtiUI8MAWIj96Efn8c-16">
          <mxGeometry x="-16" y="20" width="180" height="50" as="geometry" />
        </mxCell>
        <mxCell id="SAYtiUI8MAWIj96Efn8c-19" value="" style="endArrow=classic;html=1;rounded=0;exitX=1;exitY=0.5;exitDx=0;exitDy=0;entryX=0;entryY=0.25;entryDx=0;entryDy=0;" edge="1" parent="1" source="SAYtiUI8MAWIj96Efn8c-9" target="SAYtiUI8MAWIj96Efn8c-16">
          <mxGeometry width="50" height="50" relative="1" as="geometry">
            <mxPoint x="527" y="320" as="sourcePoint" />
            <mxPoint x="337" y="170" as="targetPoint" />
          </mxGeometry>
        </mxCell>
        <mxCell id="SAYtiUI8MAWIj96Efn8c-22" value="" style="endArrow=classic;html=1;rounded=0;exitX=1;exitY=0.25;exitDx=0;exitDy=0;entryX=0;entryY=0.5;entryDx=0;entryDy=0;" edge="1" parent="1" source="SAYtiUI8MAWIj96Efn8c-6" target="SAYtiUI8MAWIj96Efn8c-12">
          <mxGeometry width="50" height="50" relative="1" as="geometry">
            <mxPoint x="527" y="320" as="sourcePoint" />
            <mxPoint x="387" y="260" as="targetPoint" />
          </mxGeometry>
        </mxCell>
        <mxCell id="SAYtiUI8MAWIj96Efn8c-24" value="" style="endArrow=classic;html=1;rounded=0;exitX=1;exitY=0.25;exitDx=0;exitDy=0;entryX=0;entryY=0.25;entryDx=0;entryDy=0;" edge="1" parent="1" source="SAYtiUI8MAWIj96Efn8c-14" target="SAYtiUI8MAWIj96Efn8c-6">
          <mxGeometry width="50" height="50" relative="1" as="geometry">
            <mxPoint x="527" y="320" as="sourcePoint" />
            <mxPoint x="577" y="270" as="targetPoint" />
          </mxGeometry>
        </mxCell>
        <mxCell id="SAYtiUI8MAWIj96Efn8c-26" value="SAT solver" style="swimlane;whiteSpace=wrap;html=1;" vertex="1" parent="1">
          <mxGeometry x="649" y="377" width="150" height="30" as="geometry">
            <mxRectangle x="19" y="270" width="150" height="30" as="alternateBounds" />
          </mxGeometry>
        </mxCell>
        <mxCell id="SAYtiUI8MAWIj96Efn8c-28" value="Parse input SAT solver" style="swimlane;whiteSpace=wrap;html=1;" vertex="1" parent="1">
          <mxGeometry x="648" y="300" width="150" height="30" as="geometry">
            <mxRectangle x="19" y="270" width="150" height="30" as="alternateBounds" />
          </mxGeometry>
        </mxCell>
        <mxCell id="SAYtiUI8MAWIj96Efn8c-30" value="Constraints" style="swimlane;whiteSpace=wrap;html=1;" vertex="1" parent="1">
          <mxGeometry x="647" y="160" width="150" height="100" as="geometry">
            <mxRectangle x="19" y="270" width="150" height="30" as="alternateBounds" />
          </mxGeometry>
        </mxCell>
        <mxCell id="SAYtiUI8MAWIj96Efn8c-31" value="&lt;ul&gt;&lt;li&gt;first sequential&lt;/li&gt;&lt;li&gt;later parallel&lt;/li&gt;&lt;/ul&gt;" style="text;html=1;align=left;verticalAlign=middle;resizable=0;points=[];autosize=1;strokeColor=none;fillColor=none;" vertex="1" parent="SAYtiUI8MAWIj96Efn8c-30">
          <mxGeometry x="1" y="22" width="140" height="70" as="geometry" />
        </mxCell>
        <mxCell id="SAYtiUI8MAWIj96Efn8c-32" value="" style="endArrow=classic;html=1;rounded=0;exitX=1;exitY=0.25;exitDx=0;exitDy=0;entryX=-0.015;entryY=0.148;entryDx=0;entryDy=0;entryPerimeter=0;" edge="1" parent="1" source="SAYtiUI8MAWIj96Efn8c-16" target="SAYtiUI8MAWIj96Efn8c-30">
          <mxGeometry width="50" height="50" relative="1" as="geometry">
            <mxPoint x="627" y="310" as="sourcePoint" />
            <mxPoint x="637" y="175" as="targetPoint" />
          </mxGeometry>
        </mxCell>
        <mxCell id="SAYtiUI8MAWIj96Efn8c-33" value="" style="endArrow=classic;html=1;rounded=0;exitX=0.5;exitY=1;exitDx=0;exitDy=0;entryX=0.5;entryY=0;entryDx=0;entryDy=0;" edge="1" parent="1" source="SAYtiUI8MAWIj96Efn8c-12" target="SAYtiUI8MAWIj96Efn8c-30">
          <mxGeometry width="50" height="50" relative="1" as="geometry">
            <mxPoint x="627" y="310" as="sourcePoint" />
            <mxPoint x="677" y="260" as="targetPoint" />
          </mxGeometry>
        </mxCell>
        <mxCell id="SAYtiUI8MAWIj96Efn8c-35" value="" style="endArrow=classic;html=1;rounded=0;entryX=0.5;entryY=0;entryDx=0;entryDy=0;exitX=0.5;exitY=1;exitDx=0;exitDy=0;" edge="1" parent="1" source="SAYtiUI8MAWIj96Efn8c-30" target="SAYtiUI8MAWIj96Efn8c-28">
          <mxGeometry width="50" height="50" relative="1" as="geometry">
            <mxPoint x="727" y="270" as="sourcePoint" />
            <mxPoint x="627" y="390" as="targetPoint" />
          </mxGeometry>
        </mxCell>
        <mxCell id="SAYtiUI8MAWIj96Efn8c-36" value="" style="endArrow=classic;html=1;rounded=0;exitX=0.5;exitY=1;exitDx=0;exitDy=0;entryX=0.5;entryY=0;entryDx=0;entryDy=0;" edge="1" parent="1" source="SAYtiUI8MAWIj96Efn8c-28" target="SAYtiUI8MAWIj96Efn8c-26">
          <mxGeometry width="50" height="50" relative="1" as="geometry">
            <mxPoint x="577" y="440" as="sourcePoint" />
            <mxPoint x="627" y="390" as="targetPoint" />
          </mxGeometry>
        </mxCell>
        <mxCell id="SAYtiUI8MAWIj96Efn8c-40" value="Length" style="rounded=0;whiteSpace=wrap;html=1;" vertex="1" parent="1">
          <mxGeometry x="501" y="250" width="80" height="30" as="geometry" />
        </mxCell>
        <mxCell id="SAYtiUI8MAWIj96Efn8c-41" value="" style="endArrow=classic;html=1;rounded=0;exitX=1;exitY=0.5;exitDx=0;exitDy=0;" edge="1" parent="1" source="SAYtiUI8MAWIj96Efn8c-40">
          <mxGeometry width="50" height="50" relative="1" as="geometry">
            <mxPoint x="527" y="340" as="sourcePoint" />
            <mxPoint x="647" y="177" as="targetPoint" />
          </mxGeometry>
        </mxCell>
        <mxCell id="SAYtiUI8MAWIj96Efn8c-42" value="Unsatisfiable" style="rounded=0;whiteSpace=wrap;html=1;" vertex="1" parent="1">
          <mxGeometry x="493" y="377" width="96" height="28" as="geometry" />
        </mxCell>
        <mxCell id="SAYtiUI8MAWIj96Efn8c-43" value="" style="endArrow=classic;html=1;rounded=0;entryX=0.5;entryY=1;entryDx=0;entryDy=0;exitX=0.5;exitY=0;exitDx=0;exitDy=0;" edge="1" parent="1" source="SAYtiUI8MAWIj96Efn8c-42" target="SAYtiUI8MAWIj96Efn8c-40">
          <mxGeometry width="50" height="50" relative="1" as="geometry">
            <mxPoint x="527" y="340" as="sourcePoint" />
            <mxPoint x="577" y="290" as="targetPoint" />
          </mxGeometry>
        </mxCell>
        <mxCell id="SAYtiUI8MAWIj96Efn8c-44" value="Increase" style="text;html=1;align=center;verticalAlign=middle;whiteSpace=wrap;rounded=0;" vertex="1" parent="1">
          <mxGeometry x="537" y="310" width="60" height="30" as="geometry" />
        </mxCell>
        <mxCell id="SAYtiUI8MAWIj96Efn8c-45" value="" style="endArrow=classic;html=1;rounded=0;exitX=0;exitY=0.5;exitDx=0;exitDy=0;entryX=1;entryY=0.5;entryDx=0;entryDy=0;" edge="1" parent="1" source="SAYtiUI8MAWIj96Efn8c-26" target="SAYtiUI8MAWIj96Efn8c-42">
          <mxGeometry width="50" height="50" relative="1" as="geometry">
            <mxPoint x="527" y="340" as="sourcePoint" />
            <mxPoint x="577" y="290" as="targetPoint" />
          </mxGeometry>
        </mxCell>
        <mxCell id="SAYtiUI8MAWIj96Efn8c-47" value="Parser" style="swimlane;whiteSpace=wrap;html=1;" vertex="1" parent="1">
          <mxGeometry x="-19" y="160" width="156" height="85" as="geometry">
            <mxRectangle x="19" y="270" width="150" height="30" as="alternateBounds" />
          </mxGeometry>
        </mxCell>
        <mxCell id="SAYtiUI8MAWIj96Efn8c-53" value="&lt;ul&gt;&lt;li&gt;use existing parser&lt;/li&gt;&lt;li&gt;fast downward?&lt;/li&gt;&lt;/ul&gt;" style="text;html=1;align=left;verticalAlign=middle;resizable=0;points=[];autosize=1;strokeColor=none;fillColor=none;" vertex="1" parent="SAYtiUI8MAWIj96Efn8c-47">
          <mxGeometry x="-4" y="15" width="160" height="70" as="geometry" />
        </mxCell>
        <mxCell id="SAYtiUI8MAWIj96Efn8c-48" value="Translate output to plan" style="swimlane;whiteSpace=wrap;html=1;startSize=20;" vertex="1" parent="1">
          <mxGeometry x="649" y="450" width="150" height="30" as="geometry">
            <mxRectangle x="19" y="270" width="150" height="30" as="alternateBounds" />
          </mxGeometry>
        </mxCell>
        <mxCell id="SAYtiUI8MAWIj96Efn8c-50" value="Input: Pddl" style="swimlane;whiteSpace=wrap;html=1;" vertex="1" parent="1">
          <mxGeometry x="-20" y="42" width="160" height="28" as="geometry" />
        </mxCell>
        <mxCell id="SAYtiUI8MAWIj96Efn8c-51" value="" style="endArrow=classic;html=1;rounded=0;entryX=0;entryY=0.25;entryDx=0;entryDy=0;" edge="1" parent="1" target="SAYtiUI8MAWIj96Efn8c-14">
          <mxGeometry width="50" height="50" relative="1" as="geometry">
            <mxPoint x="140" y="60" as="sourcePoint" />
            <mxPoint x="410" y="240" as="targetPoint" />
          </mxGeometry>
        </mxCell>
        <mxCell id="SAYtiUI8MAWIj96Efn8c-52" value="" style="endArrow=classic;html=1;rounded=0;entryX=0;entryY=0.5;entryDx=0;entryDy=0;exitX=1;exitY=0.25;exitDx=0;exitDy=0;" edge="1" parent="1" source="SAYtiUI8MAWIj96Efn8c-47" target="SAYtiUI8MAWIj96Efn8c-9">
          <mxGeometry width="50" height="50" relative="1" as="geometry">
            <mxPoint x="140" y="175" as="sourcePoint" />
            <mxPoint x="230" y="175" as="targetPoint" />
          </mxGeometry>
        </mxCell>
        <mxCell id="SAYtiUI8MAWIj96Efn8c-54" value="" style="endArrow=classic;html=1;rounded=0;exitX=0.5;exitY=1;exitDx=0;exitDy=0;entryX=0.5;entryY=0;entryDx=0;entryDy=0;" edge="1" parent="1" source="SAYtiUI8MAWIj96Efn8c-50" target="SAYtiUI8MAWIj96Efn8c-47">
          <mxGeometry width="50" height="50" relative="1" as="geometry">
            <mxPoint x="360" y="290" as="sourcePoint" />
            <mxPoint x="60" y="150" as="targetPoint" />
          </mxGeometry>
        </mxCell>
        <mxCell id="SAYtiUI8MAWIj96Efn8c-59" value="" style="endArrow=classic;html=1;rounded=0;exitX=0.5;exitY=1;exitDx=0;exitDy=0;entryX=0.5;entryY=0;entryDx=0;entryDy=0;" edge="1" parent="1" source="SAYtiUI8MAWIj96Efn8c-26" target="SAYtiUI8MAWIj96Efn8c-48">
          <mxGeometry width="50" height="50" relative="1" as="geometry">
            <mxPoint x="360" y="290" as="sourcePoint" />
            <mxPoint x="410" y="240" as="targetPoint" />
          </mxGeometry>
        </mxCell>
      </root>
    </mxGraphModel>
  </diagram>
</mxfile>
